<mxfile host="app.diagrams.net" modified="2023-09-08T01:17:16.212Z" agent="Mozilla/5.0 (Windows NT 10.0; Win64; x64) AppleWebKit/537.36 (KHTML, like Gecko) Chrome/116.0.0.0 Safari/537.36" etag="jDjA1-00RxFou3ChkN7B" version="21.7.2" type="device">
  <diagram name="Page-1" id="CohAaRQFnzdv2M4OkJoU">
    <mxGraphModel dx="724" dy="461" grid="1" gridSize="10" guides="1" tooltips="1" connect="1" arrows="1" fold="1" page="1" pageScale="1" pageWidth="850" pageHeight="1100" math="0" shadow="0">
      <root>
        <mxCell id="0" />
        <mxCell id="1" parent="0" />
        <mxCell id="iQFDpgVbmzxGJE-ieDAw-9" style="rounded=0;orthogonalLoop=1;jettySize=auto;html=1;entryX=0;entryY=0.5;entryDx=0;entryDy=0;" edge="1" parent="1" source="iQFDpgVbmzxGJE-ieDAw-1" target="iQFDpgVbmzxGJE-ieDAw-5">
          <mxGeometry relative="1" as="geometry" />
        </mxCell>
        <mxCell id="iQFDpgVbmzxGJE-ieDAw-10" style="rounded=0;orthogonalLoop=1;jettySize=auto;html=1;entryX=0;entryY=0.5;entryDx=0;entryDy=0;" edge="1" parent="1" source="iQFDpgVbmzxGJE-ieDAw-1" target="iQFDpgVbmzxGJE-ieDAw-6">
          <mxGeometry relative="1" as="geometry" />
        </mxCell>
        <mxCell id="iQFDpgVbmzxGJE-ieDAw-11" style="rounded=0;orthogonalLoop=1;jettySize=auto;html=1;entryX=0;entryY=0.5;entryDx=0;entryDy=0;" edge="1" parent="1" source="iQFDpgVbmzxGJE-ieDAw-1" target="iQFDpgVbmzxGJE-ieDAw-7">
          <mxGeometry relative="1" as="geometry" />
        </mxCell>
        <mxCell id="iQFDpgVbmzxGJE-ieDAw-12" style="rounded=0;orthogonalLoop=1;jettySize=auto;html=1;entryX=0;entryY=0.5;entryDx=0;entryDy=0;" edge="1" parent="1" source="iQFDpgVbmzxGJE-ieDAw-1" target="iQFDpgVbmzxGJE-ieDAw-8">
          <mxGeometry relative="1" as="geometry" />
        </mxCell>
        <mxCell id="iQFDpgVbmzxGJE-ieDAw-1" value="Player" style="shape=umlActor;verticalLabelPosition=bottom;verticalAlign=top;html=1;outlineConnect=0;" vertex="1" parent="1">
          <mxGeometry x="105" y="130" width="30" height="60" as="geometry" />
        </mxCell>
        <mxCell id="iQFDpgVbmzxGJE-ieDAw-5" value="Login or Sign Up" style="ellipse;whiteSpace=wrap;html=1;aspect=fixed;" vertex="1" parent="1">
          <mxGeometry x="240" y="10" width="70" height="70" as="geometry" />
        </mxCell>
        <mxCell id="iQFDpgVbmzxGJE-ieDAw-6" value="Single Player" style="ellipse;whiteSpace=wrap;html=1;aspect=fixed;" vertex="1" parent="1">
          <mxGeometry x="240" y="170" width="70" height="70" as="geometry" />
        </mxCell>
        <mxCell id="iQFDpgVbmzxGJE-ieDAw-7" value="Multiplayer" style="ellipse;whiteSpace=wrap;html=1;aspect=fixed;" vertex="1" parent="1">
          <mxGeometry x="240" y="90" width="70" height="70" as="geometry" />
        </mxCell>
        <mxCell id="iQFDpgVbmzxGJE-ieDAw-21" style="rounded=0;orthogonalLoop=1;jettySize=auto;html=1;" edge="1" parent="1" source="iQFDpgVbmzxGJE-ieDAw-8" target="iQFDpgVbmzxGJE-ieDAw-20">
          <mxGeometry relative="1" as="geometry" />
        </mxCell>
        <mxCell id="iQFDpgVbmzxGJE-ieDAw-8" value="Play Word" style="ellipse;whiteSpace=wrap;html=1;aspect=fixed;" vertex="1" parent="1">
          <mxGeometry x="240" y="250" width="70" height="70" as="geometry" />
        </mxCell>
        <mxCell id="iQFDpgVbmzxGJE-ieDAw-15" style="rounded=0;orthogonalLoop=1;jettySize=auto;html=1;entryX=1;entryY=0.5;entryDx=0;entryDy=0;startArrow=classic;startFill=1;" edge="1" parent="1" source="iQFDpgVbmzxGJE-ieDAw-13" target="iQFDpgVbmzxGJE-ieDAw-7">
          <mxGeometry relative="1" as="geometry" />
        </mxCell>
        <mxCell id="iQFDpgVbmzxGJE-ieDAw-16" style="rounded=0;orthogonalLoop=1;jettySize=auto;html=1;entryX=1;entryY=0.5;entryDx=0;entryDy=0;startArrow=classic;startFill=1;" edge="1" parent="1" source="iQFDpgVbmzxGJE-ieDAw-13" target="iQFDpgVbmzxGJE-ieDAw-5">
          <mxGeometry relative="1" as="geometry" />
        </mxCell>
        <mxCell id="iQFDpgVbmzxGJE-ieDAw-13" value="Server" style="shape=cylinder3;whiteSpace=wrap;html=1;boundedLbl=1;backgroundOutline=1;size=15;" vertex="1" parent="1">
          <mxGeometry x="474.5" y="21" width="60" height="80" as="geometry" />
        </mxCell>
        <mxCell id="iQFDpgVbmzxGJE-ieDAw-23" style="edgeStyle=orthogonalEdgeStyle;rounded=0;orthogonalLoop=1;jettySize=auto;html=1;entryX=0.5;entryY=1;entryDx=0;entryDy=0;" edge="1" parent="1" source="iQFDpgVbmzxGJE-ieDAw-18" target="iQFDpgVbmzxGJE-ieDAw-19">
          <mxGeometry relative="1" as="geometry" />
        </mxCell>
        <mxCell id="iQFDpgVbmzxGJE-ieDAw-18" value="Computer" style="shape=mxgraph.signs.tech.computer;html=1;pointerEvents=1;fillColor=#000000;strokeColor=none;verticalLabelPosition=bottom;verticalAlign=top;align=center;sketch=0;" vertex="1" parent="1">
          <mxGeometry x="475.5" y="231" width="59" height="68" as="geometry" />
        </mxCell>
        <mxCell id="iQFDpgVbmzxGJE-ieDAw-24" style="edgeStyle=orthogonalEdgeStyle;rounded=0;orthogonalLoop=1;jettySize=auto;html=1;" edge="1" parent="1" source="iQFDpgVbmzxGJE-ieDAw-19" target="iQFDpgVbmzxGJE-ieDAw-13">
          <mxGeometry relative="1" as="geometry" />
        </mxCell>
        <mxCell id="iQFDpgVbmzxGJE-ieDAw-19" value="Request Word List" style="ellipse;whiteSpace=wrap;html=1;aspect=fixed;" vertex="1" parent="1">
          <mxGeometry x="469.5" y="130" width="70" height="70" as="geometry" />
        </mxCell>
        <mxCell id="iQFDpgVbmzxGJE-ieDAw-22" style="rounded=0;orthogonalLoop=1;jettySize=auto;html=1;" edge="1" parent="1" source="iQFDpgVbmzxGJE-ieDAw-20" target="iQFDpgVbmzxGJE-ieDAw-18">
          <mxGeometry relative="1" as="geometry" />
        </mxCell>
        <mxCell id="iQFDpgVbmzxGJE-ieDAw-20" value="Check&lt;br&gt;Word" style="ellipse;whiteSpace=wrap;html=1;aspect=fixed;" vertex="1" parent="1">
          <mxGeometry x="355" y="240" width="70" height="70" as="geometry" />
        </mxCell>
      </root>
    </mxGraphModel>
  </diagram>
</mxfile>
